<svg width="30" height="30" viewBox="0 0 30 30" fill="none" xmlns="http://www.w3.org/2000/svg">
<g clip-path="url(#clip0_1032_770)">
<path d="M15 0.9375C7.2334 0.9375 0.9375 7.2334 0.9375 15C0.9375 22.7666 7.2334 29.0625 15 29.0625C22.7666 29.0625 29.0625 22.7666 29.0625 15C29.0625 7.2334 22.7666 0.9375 15 0.9375ZM15 4.45312C20.8248 4.45312 25.5469 9.17519 25.5469 15C25.5469 20.8248 20.8248 25.5469 15 25.5469C9.17519 25.5469 4.45312 20.8248 4.45312 15C4.45312 9.17519 9.17519 4.45312 15 4.45312ZM10.2759 7.96875C10.219 7.96846 10.1583 7.97531 10.0964 7.98709V7.98522C9.02432 8.18654 7.44422 10.0209 8.14084 10.7172L12.4274 15.0019L8.1409 19.2866C7.28367 20.1435 9.85623 22.7163 10.7135 21.8592L15 17.5726L19.2865 21.8591C20.1437 22.7162 22.7164 20.1435 21.8591 19.2865L17.5726 15.0018L21.8591 10.7172C22.7163 9.86027 20.1438 7.28947 19.2865 8.14641L15 12.4311L10.7135 8.14641C10.5928 8.02652 10.4463 7.96975 10.2758 7.96887L10.2759 7.96875Z" fill="#FF3030"/>
</g>
<defs>
<clipPath id="clip0_1032_770">
<rect width="30" height="30" fill="white"/>
</clipPath>
</defs>
</svg>
